<?xml version="1.0" standalone="no"?><!DOCTYPE svg PUBLIC "-//W3C//DTD SVG 1.1//EN" "http://www.w3.org/Graphics/SVG/1.1/DTD/svg11.dtd"><svg class="icon" width="16px" height="16.00px" viewBox="0 0 1024 1024" version="1.1" xmlns="http://www.w3.org/2000/svg"><path d="M782.848 728.576m-185.856 0a185.856 185.856 0 1 0 371.712 0 185.856 185.856 0 1 0-371.712 0Z" fill="#FFE200" /><path d="M194.56 166.4H128c-16.896 0-30.72-13.824-30.72-30.72s13.824-30.72 30.72-30.72h66.56c16.896 0 30.72 13.824 30.72 30.72s-13.824 30.72-30.72 30.72z" fill="#FFE200" /><path d="M246.784 263.168l83.968 83.968-26.112 26.112c-16.896 16.896-26.112 38.912-26.112 62.976 0 23.552 9.216 46.08 26.112 62.976l205.824 205.824c16.896 16.896 38.912 26.112 62.976 26.112 23.552 0 46.08-9.216 62.976-26.112l31.232-31.232 96.768 96.768c-32.256 37.888-66.048 61.952-91.136 65.024-4.096 0.512-8.704 1.024-13.312 2.048-16.384 2.048-36.352 5.12-59.904 5.12-41.984 0-82.432-8.704-124.416-26.624-58.368-25.088-118.784-68.096-178.688-128-79.36-79.872-124.928-161.28-135.68-242.688-7.168-53.76 3.072-94.208 10.752-114.688 6.144-8.704 29.696-32.256 74.752-67.584M249.856 190.464c-5.632 0-11.264 2.048-16.384 5.632-35.328 26.624-108.032 83.456-118.272 110.592-13.824 35.84-72.192 214.016 138.24 424.448 145.92 145.92 266.24 172.544 346.112 172.544 35.328 0 62.464-5.12 80.896-7.168 66.56-8.192 125.952-77.824 151.04-112.64 8.192-10.752 7.168-26.112-2.56-35.84l-142.336-142.336c-5.12-5.12-12.288-8.192-19.456-8.192s-13.824 2.56-19.456 8.192l-55.296 55.296c-5.12 5.12-12.288 8.192-19.456 8.192s-13.824-2.56-19.456-8.192L348.16 455.168c-10.752-10.752-10.752-28.16 0-38.912l50.176-50.176c10.752-10.752 10.752-28.16 0-38.912L269.312 198.656c-5.632-5.632-12.288-8.192-19.456-8.192zM743.424 541.696h-2.56c-16.896-1.536-29.184-16.384-27.648-33.28 4.608-49.152-5.632-87.552-29.184-113.664-36.864-40.96-97.792-41.984-98.304-41.984-16.896 0-30.72-13.824-30.72-30.72s13.824-30.72 30.72-30.72c3.584 0 87.552 0.512 143.36 61.44 36.352 39.424 51.2 93.696 45.056 161.28-1.536 15.872-14.848 27.648-30.72 27.648zM886.272 499.712h-2.56c-16.896-1.536-29.184-16.384-27.648-33.28 7.168-81.92-9.728-145.92-50.176-190.464-62.976-69.12-164.864-70.656-165.888-70.656-16.896 0-30.72-13.824-30.72-30.72s13.824-30.72 30.72-30.72c5.12 0 129.024 1.024 210.432 90.112C903.168 291.84 925.696 371.712 916.48 472.064c-1.024 15.872-14.336 27.648-30.208 27.648z" fill="#4E63DD" /></svg>