<?xml version="1.0" standalone="no"?><!DOCTYPE svg PUBLIC "-//W3C//DTD SVG 1.1//EN" "http://www.w3.org/Graphics/SVG/1.1/DTD/svg11.dtd"><svg class="icon" width="16px" height="16.00px" viewBox="0 0 1024 1024" version="1.1" xmlns="http://www.w3.org/2000/svg"><path d="M452.266667 597.333333c-4.266667 0-8.533333 0-12.8-4.266666l-110.933334-115.2c-8.533333-8.533333-4.266667-17.066667 0-25.6 8.533333-8.533333 17.066667-4.266667 25.6 0l98.133334 102.4 192-192c8.533333-8.533333 17.066667-8.533333 25.6 0 8.533333 8.533333 8.533333 17.066667 0 25.6L469.333333 593.066667c-8.533333 4.266667-12.8 4.266667-17.066666 4.266666z"  /><path d="M563.2 601.6m-285.866667 0a285.866667 285.866667 0 1 0 571.733334 0 285.866667 285.866667 0 1 0-571.733334 0Z" fill="#FFDD48" /><path d="M477.866667 844.8H469.333333C115.2 652.8 179.2 302.933333 179.2 298.666667c0-4.266667 4.266667-12.8 12.8-12.8 157.866667-42.666667 273.066667-145.066667 273.066667-145.066667 4.266667-4.266667 17.066667-4.266667 21.333333 0 115.2 98.133333 302.933333 149.333333 302.933333 149.333333 8.533333 0 12.8 8.533333 12.8 12.8 34.133333 366.933333-315.733333 533.333333-320 537.6 0 4.266667-4.266667 4.266667-4.266666 4.266667zM209.066667 315.733333c-8.533333 55.466667-25.6 332.8 268.8 494.933334 46.933333-25.6 315.733333-179.2 294.4-486.4-42.666667-12.8-187.733333-64-294.4-145.066667-34.133333 25.6-132.266667 98.133333-268.8 136.533333z"  /></svg>