<?xml version="1.0" standalone="no"?><!DOCTYPE svg PUBLIC "-//W3C//DTD SVG 1.1//EN" "http://www.w3.org/Graphics/SVG/1.1/DTD/svg11.dtd"><svg t="1679622788143" class="icon" viewBox="0 0 1024 1024" version="1.1" xmlns="http://www.w3.org/2000/svg" p-id="12506" width="48" height="48" xmlns:xlink="http://www.w3.org/1999/xlink"><path d="M288.243702 0c-18.096466 0-32.793595 14.79711-32.793595 32.793595v155.769576c0 18.096466 14.79711 32.793595 32.793595 32.793595 4.699082 0 9.198203-1.099785 13.297403-2.899433V2.899434c-4.099199-1.799649-8.598321-2.899434-13.297403-2.899434zM405.620777 157.669205V87.382933h-0.799844v70.886155c0.299941-0.199961 0.599883-0.399922 0.799844-0.599883z" p-id="12507" fill="#37e4ba"></path><path d="M437.714509 0c-17.996485 0-32.793595 14.79711-32.793595 32.793595v54.489358h0.799844v101.380199c0 17.896505 14.597149 32.493654 32.493653 32.793595 4.599102-0.09998 8.898262-0.999805 12.897481-2.799454V2.899434c-4.19918-1.799649-8.698301-2.899434-13.397383-2.899434z" p-id="12508" fill="#37e4ba"></path><path d="M437.714509 221.556727c0.09998 0 0.199961-0.09998 0.199961-0.09998-17.696544-0.199961-32.293693-14.79711-32.293693-32.793595v-30.993947c-0.199961 0.199961-0.499902 0.299941-0.799844 0.499903v30.394063c0 18.196446 14.79711 32.993556 32.893576 32.993556zM570.288616 149.070885c5.198985-1.999609 10.797891-3.199375 16.596758-3.399336-5.798867 0.299941-11.397774 1.399727-16.596758 3.399336zM588.685022 145.471588c4.699082 0 8.898262 1.499707 13.197423 2.699472v-0.199961c-4.29916-1.299746-8.49834-2.599492-13.197423-2.499511zM560.890451 154.769772c-1.599688 1.099785-3.499317 1.699668-4.999024 2.999414V87.382933h-0.09998v70.886155c1.499707-1.399727 3.399336-2.299551 5.099004-3.499316zM560.890451 154.769772c2.999414-2.09959 5.998828-4.29916 9.398165-5.598907-3.499317 1.299746-6.29877 3.499317-9.398165 5.598907zM588.585042 145.371607c-0.599883 0-1.099785 0.299941-1.599688 0.299942 0.499902 0.09998 1.099785-0.199961 1.599688-0.299942z" p-id="12509" fill="#37e4ba"></path><path d="M601.882445 147.871119V2.899434c-4.099199-1.799649-8.598321-2.899434-13.297403-2.899434-18.096466 0-32.893575 14.79711-32.893575 32.793595v54.489358h0.19996v70.386252c1.499707-1.299746 3.399336-1.899629 4.999024-2.999414-1.699668 1.199766-3.599297 2.09959-5.198984 3.499317v30.394063c0 18.096466 14.79711 32.793595 32.893575 32.793595 4.699082 0 9.198203-1.099785 13.297403-2.899433V147.971099c-4.29916-1.199766-8.49834-2.699473-13.197423-2.699472-0.599883 0-1.099785 0.299941-1.699668 0.299941 0.599883 0 1.099785-0.299941 1.699668-0.299941h0.199961c4.499121 0.09998 8.698301 1.399727 12.997462 2.599492z" p-id="12510" fill="#37e4ba"></path><path d="M688.765475 193.962117c0.299941-6.498731 1.599688-12.69752 4.0992-18.196446-2.499512 5.498926-3.799258 11.697715-4.0992 18.196446zM785.046671 175.66569c2.599492 5.698887 3.999219 12.097637 4.29916 18.796329-0.299941-6.698692-1.699668-12.997461-4.29916-18.796329zM772.949033 159.268893c3.399336 3.099395 5.898848 6.998633 8.39836 10.797891-2.499512-3.899238-4.999024-7.698496-8.39836-10.797891zM696.763913 169.966803c2.399531-3.799258 4.899043-7.598516 8.198399-10.69791-3.299356 3.099395-5.798867 6.798672-8.198399 10.69791zM738.955673 246.851787c-27.994532 0-50.590119-22.695567-50.6901-50.590119v0.09998c0 27.994532 22.695567 50.6901 50.6901 50.6901 27.994532 0 50.79008-22.695567 50.79008-50.6901v-0.09998c-0.09998 27.994532-22.795548 50.590119-50.79008 50.590119z" fill="#37e4ba" p-id="12511"></path><path d="M738.955673 0.199961C720.859207 0.199961 706.162078 14.997071 706.162078 32.993556v155.969537c0 18.096466 14.79711 32.793595 32.793595 32.793595 4.699082 0 9.198203-1.099785 13.297403-2.899434V3.099395C748.153876 1.299746 743.654755 0.199961 738.955673 0.199961z" p-id="12512" fill="#37e4ba"></path><path d="M621.578598 159.068932v-1.299746M793.844952 87.382933h-22.095684v70.386253c0.499902 0.399922 0.699863 0.999805 1.099785 1.499707 3.399336 3.099395 5.898848 6.898653 8.39836 10.797891 2.19957 3.499317 4.599102 6.898653 5.798867 10.897871 3.799258 12.197618 3.099395 26.194884-2.499512 37.692638-3.699277 7.598516-9.298184 14.197227-16.196836 19.096271-8.598321 6.098809-18.896309 9.398164-29.394259 9.398164-16.99668 0-33.193517-8.798282-42.491701-23.095489-4.499121-6.898653-7.798477-14.997071-8.298379-23.29545-0.199961-3.999219 0.399922-8.098418 0.999804-12.097637 0.699863-4.599102 1.999609-9.098223 4.0992-13.297403 2.899434-5.698887 6.898653-11.897676 11.597735-16.296817 0.499902-0.399922 0.699863-1.099785 1.099785-1.499707V87.382933h-84.58348v71.685999c10.59793 9.098223 17.796524 21.995704 17.796524 37.092755 0 27.994532-22.695567 50.6901-50.690099 50.6901-27.994532 0-50.6901-22.695567-50.6901-50.6901 0-15.297012 7.098614-28.594415 17.896505-37.892599V87.382933h-84.383519v71.386057c10.297989 9.298184 17.096661 22.395626 17.09666 37.392697 0 27.994532-22.695567 50.6901-50.79008 50.6901-27.994532 0-50.6901-22.695567-50.690099-50.6901 0-15.297012 7.098614-28.594415 17.896504-37.892599V87.382933H321.037297v70.886155c10.697911 9.298184 17.896505 22.595587 17.896505 37.892599 0 27.994532-22.695567 50.6901-50.6901 50.6901-27.994532 0-50.79008-22.695567-50.79008-50.6901 0-15.297012 7.198594-28.594415 17.896505-37.892599V87.382933h-25.195079c-52.98965 0-96.381176 43.391525-96.381176 96.381176v743.854715c0 52.98965 43.391525 96.381176 96.381176 96.381176h563.689904c52.98965 0 96.381176-43.391525 96.381176-96.381176v-743.854715c0-53.089631-43.391525-96.381176-96.381176-96.381176z m-42.991603 785.346612H273.146651c-18.596368 0-33.593439-15.097051-33.593439-33.593439 0-18.596368 15.097051-33.593439 33.593439-33.593439h477.606717c18.596368 0 33.593439 15.097051 33.593439 33.593439 0.09998 18.496387-14.997071 33.593439-33.493458 33.593439z m0-139.57274H273.146651c-18.596368 0-33.593439-15.097051-33.593439-33.593438s15.097051-33.593439 33.593439-33.593439h477.606717c18.596368 0 33.593439 15.097051 33.593439 33.593439s-14.997071 33.593439-33.493458 33.593438z m0-139.472759H273.146651c-18.596368 0-33.593439-15.097051-33.593439-33.593439s15.097051-33.593439 33.593439-33.593438h477.606717c18.596368 0 33.593439 15.097051 33.593439 33.593438s-14.997071 33.593439-33.493458 33.593439z m0-139.57274H273.146651c-18.596368 0-33.593439-15.097051-33.593439-33.593438 0-18.596368 15.097051-33.593439 33.593439-33.593439h477.606717c18.596368 0 33.593439 15.097051 33.593439 33.593439 0.09998 18.596368-14.997071 33.593439-33.493458 33.593438z" p-id="12513" fill="#37e4ba"></path></svg>