<?xml version="1.0" standalone="no"?><!DOCTYPE svg PUBLIC "-//W3C//DTD SVG 1.1//EN" "http://www.w3.org/Graphics/SVG/1.1/DTD/svg11.dtd"><svg class="icon" width="16px" height="16.00px" viewBox="0 0 1024 1024" version="1.1" xmlns="http://www.w3.org/2000/svg"><path d="M88.9856 584.7552v39.4752c0 63.8976 51.8144 115.712 115.712 115.712h615.3216c63.8976 0 115.712-51.8144 115.712-115.712v-39.4752H88.9856z" fill="#FACC31" /><path d="M824.6272 115.3536H200.0896c-75.3664 0-136.704 61.3376-136.704 136.704v376.7808c0 75.3664 61.3376 136.704 136.704 136.704h624.4864c75.3664 0 136.704-61.3376 136.704-136.704V252.0576c0.0512-75.3664-61.2864-136.704-136.6528-136.704z m-624.5376 51.2h624.4864c47.1552 0 85.504 38.3488 85.504 85.504v307.0976H114.5856V252.0576c0-47.1552 38.3488-85.504 85.504-85.504z m710.0416 457.6768c0 49.664-40.448 90.112-90.112 90.112H204.6976c-49.7152 0-90.112-40.448-90.112-90.112v-13.8752h795.5456v13.8752zM724.736 869.5296H301.3632c-14.1312 0-25.6 11.4688-25.6 25.6s11.4688 25.6 25.6 25.6h423.3728c14.1312 0 25.6-11.4688 25.6-25.6s-11.4688-25.6-25.6-25.6z" fill="#191919" /></svg>