<?xml version="1.0" standalone="no"?><!DOCTYPE svg PUBLIC "-//W3C//DTD SVG 1.1//EN" "http://www.w3.org/Graphics/SVG/1.1/DTD/svg11.dtd"><svg class="icon" width="16px" height="16.00px" viewBox="0 0 1024 1024" version="1.1" xmlns="http://www.w3.org/2000/svg"><path d="M730.9 175.9v93c0 22.4-18.2 40.6-40.6 40.6H268.9V117.6h403.8c32.1 0 58.2 26.1 58.2 58.3z" fill="#1A6DFF" /><path d="M690.3 317.6H260.7V109.5h412c36.6 0 66.4 29.8 66.4 66.5v93c0 26.8-21.9 48.6-48.8 48.6z m-413.2-16.3h413.3c17.9 0 32.4-14.5 32.4-32.4v-93c0-27.6-22.4-50.1-50-50.1H277.1v175.5z" fill="#282828" /><path d="M94.9 769v35.7c0 22.4 18.2 40.6 40.6 40.6H557V710.7H153.1c-32.1 0-58.2 26.1-58.2 58.3z" fill="#1A6DFF" /><path d="M565.1 853.5H135.5c-26.9 0-48.7-21.9-48.7-48.7V769c0-36.7 29.8-66.5 66.4-66.5h412v151z m-412-134.6c-27.6 0-50 22.5-50 50.1v35.7c0 17.9 14.5 32.4 32.4 32.4h413.3V718.9H153.1z" fill="#282828" /><path d="M253.6 117.6c-16.1 0-30.7 6.5-41.2 17.1-10.5 10.5-17.1 25.1-17.1 41.2v611.4c0 3.1-0.2 6.2-0.8 9.2-1.9 12.4-7.8 23.5-16.3 32-10.5 10.5-25 17.1-41.1 17.1h420.5c16.1 0 30.7-6.5 41.1-17.1 8.5-8.4 14.4-19.5 16.3-32V175.9c0-32.2 26.1-58.3 58.3-58.3H253.6z" fill="#FFFFFF" /><path d="M557.6 853.6H137.1c-4.5 0-8.2-3.7-8.2-8.2 0-4.5 3.7-8.2 8.2-8.2 13.4 0 25.9-5.2 35.3-14.7 7.6-7.5 12.4-17 14-27.4 0.5-2.6 0.7-5.2 0.7-7.9V175.9c0-17.7 6.9-34.4 19.5-47s29.3-19.5 47-19.5h419.7c4.5 0 8.2 3.7 8.2 8.2s-3.7 8.2-8.2 8.2c-27.6 0-50.1 22.5-50.1 50.1v620.5c0 0.4 0 0.8-0.1 1.2-2.1 14-8.5 26.6-18.6 36.6-12.4 12.5-29.1 19.4-46.9 19.4z m-376.9-16.3h377c13.4 0 25.9-5.2 35.3-14.7 7.5-7.4 12.2-16.6 13.9-26.9V175.9c0-20 8.9-37.9 22.9-50.1H253.6c-13.4 0-26 5.2-35.4 14.7-9.5 9.5-14.7 22.1-14.7 35.4v611.3c0 3.8-0.3 7.4-1 10.7-2.1 13.6-8.5 26.3-18.5 36.2-1.1 1.1-2.2 2.2-3.3 3.2z" fill="#282828" /><path d="M533.7 221.7H274.1c-4.5 0-8.2-3.7-8.2-8.2s3.7-8.2 8.2-8.2h259.6c4.5 0 8.2 3.7 8.2 8.2s-3.7 8.2-8.2 8.2zM533.7 307.1H274.1c-4.5 0-8.2-3.7-8.2-8.2s3.7-8.2 8.2-8.2h259.6c4.5 0 8.2 3.7 8.2 8.2s-3.7 8.2-8.2 8.2zM533.7 392.4H274.1c-4.5 0-8.2-3.7-8.2-8.2s3.7-8.2 8.2-8.2h259.6c4.5 0 8.2 3.7 8.2 8.2s-3.7 8.2-8.2 8.2zM485.7 477.8H274.1c-4.5 0-8.2-3.7-8.2-8.2s3.7-8.2 8.2-8.2h211.6c4.5 0 8.2 3.7 8.2 8.2s-3.7 8.2-8.2 8.2zM485.7 563.2H274.1c-4.5 0-8.2-3.7-8.2-8.2 0-4.5 3.7-8.2 8.2-8.2h211.6c4.5 0 8.2 3.7 8.2 8.2-0.1 4.5-3.7 8.2-8.2 8.2zM814.3 710.4H602.7c-4.5 0-8.2-3.7-8.2-8.2s3.7-8.2 8.2-8.2h211.6c4.5 0 8.2 3.7 8.2 8.2s-3.7 8.2-8.2 8.2zM502.3 698.5H383.7c-4.5 0-8.2-3.7-8.2-8.2 0-4.5 3.7-8.2 8.2-8.2h118.6c4.5 0 8.2 3.7 8.2 8.2 0 4.5-3.6 8.2-8.2 8.2zM502.3 764.8H383.7c-4.5 0-8.2-3.7-8.2-8.2 0-4.5 3.7-8.2 8.2-8.2h118.6c4.5 0 8.2 3.7 8.2 8.2 0 4.6-3.6 8.2-8.2 8.2z" fill="#282828" /><path d="M870.7 763.5V889c0 10.3-8.3 18.7-18.7 18.7H565c-10.3 0-18.7-8.4-18.7-18.7V763.5c0-10.4 8.4-18.8 18.7-18.8h287c10.4 0 18.7 8.4 18.7 18.8z" fill="#FFFFFF" /><path d="M852 916H565c-14.8 0-26.9-12.1-26.9-26.9V763.5c0-14.9 12.1-27 26.9-27h287c14.8 0 26.9 12.1 26.9 27V889c0 14.9-12.1 27-26.9 27zM565 752.9c-5.8 0-10.5 4.8-10.5 10.6V889c0 5.8 4.7 10.5 10.5 10.5h287c5.8 0 10.5-4.7 10.5-10.5V763.5c0-5.9-4.7-10.6-10.5-10.6H565z" fill="#282828" /><path d="M844.8 783.1v101c0 9-7.3 16.3-16.3 16.3H579c-9 0-16.3-7.3-16.3-16.3v-101c0-9 7.3-16.4 16.3-16.4h249.6c9 0.1 16.2 7.4 16.2 16.4z" fill="#50BCFF" /><path d="M832.2 744.7H584.8l34.4-30.6s10.9-11.9 20.8-11.9h140.1c6.5 0 10.9 3.5 15.5 8.3 0 0 4.3 4.4 4.3 4.5l32.3 29.7z" fill="#FFFFFF" /><path d="M832.2 752.9H584.8c-3.4 0-6.4-2.1-7.6-5.3-1.2-3.2-0.3-6.8 2.2-9l34.1-30.3c2.4-2.5 14.1-14.3 26.6-14.3h140.1c9.6 0 16 5.2 21.4 10.7 1.8 1.8 3.1 3.1 4 4.2l32.1 29.8c2.5 2.3 3.3 5.9 2.1 9-1.2 3.1-4.3 5.2-7.6 5.2z m-225.9-16.3h205L794.5 721l-0.7-0.7c-0.8-0.9-3.9-4-3.9-4-4.3-4.4-6.7-5.8-9.7-5.8H640.1c-4.5 0-11.9 6-14.8 9.3l-0.6 0.6-18.4 16.2z" fill="#282828" /><path d="M622.6 597.3l-101.2 98.3s43.2-19.6 65.8-14.2l65.8-71.7-30.4-12.4z" fill="#FFFFFF" /><path d="M521.5 703.8c-2.6 0-5.2-1.3-6.8-3.6-2.2-3.3-1.8-7.7 1.1-10.5L617 591.4c2.3-2.3 5.8-2.9 8.8-1.7l30.4 12.3c2.5 1 4.3 3.2 4.9 5.8 0.6 2.6-0.1 5.4-1.9 7.3l-65.8 71.7c-2 2.2-5 3.2-8 2.4-16.3-3.9-49.2 8.6-60.5 13.7-1.2 0.6-2.3 0.9-3.4 0.9z m103-96.9l-70.9 68.8c10.3-2.6 21.3-4.2 30.6-3.2l54.8-59.8-14.5-5.8z" fill="#282828" /><path d="M903.4 276.3s-267 189.3-316.2 333l46.3 37.2s89.8-39.6 286.7-350.9c16.5-26.1 13.8-37.3-16.8-19.3z" fill="#1A6DFF" /><path d="M632.3 655.9L577.6 612l1.9-5.4c49.5-144.5 308.2-329.2 319.2-337l0.6-0.4c13.1-7.7 27.5-14.4 35.6-6.1 8.3 8.6 0.2 24.1-7.7 36.7-195.9 309.9-286.5 352.4-290.3 354l-4.6 2.1z m-35.4-49.4l37.5 30.1c19.7-12.2 109.9-78.1 279-345.5 4.4-7 6.6-11.6 7.7-14.5-2.7 1-6.9 2.8-13.1 6.5-10 7.1-259.3 186.6-311.1 323.4z" fill="#282828" /></svg>