<?xml version="1.0" standalone="no"?><!DOCTYPE svg PUBLIC "-//W3C//DTD SVG 1.1//EN" "http://www.w3.org/Graphics/SVG/1.1/DTD/svg11.dtd"><svg class="icon" width="32px" height="32.00px" viewBox="0 0 1024 1024" version="1.1" xmlns="http://www.w3.org/2000/svg"><path fill="#2bd9af" d="M896 160H128v704h768z m-704 64h640v423.68L706.08 496l-157.12 157.12L352 358.24l-160 240z m0 576v-86.24l160-240 187.04 280.48L701.92 592 832 747.52V800z"  /><path fill="#2bd9af" d="M672 448a96 96 0 1 0-96-96 96 96 0 0 0 96 96z m0-128a32 32 0 1 1-32 32 32 32 0 0 1 32-32z"  /></svg>